<?xml version="1.0" standalone="no"?>
<!DOCTYPE svg PUBLIC "-//W3C//DTD SVG 20010904//EN"
 "http://www.w3.org/TR/2001/REC-SVG-20010904/DTD/svg10.dtd">
<svg version="1.0" xmlns="http://www.w3.org/2000/svg"
 width="700.000000pt" height="700.000000pt" viewBox="0 0 700.000000 700.000000"
 preserveAspectRatio="xMidYMid meet">
<metadata>
Created by potrace 1.11, written by Peter Selinger 2001-2013
</metadata>
<g transform="translate(0.000000,700.000000) scale(0.100000,-0.100000)"
fill="#000000" stroke="none">
<path d="M3287 6123 c-1 -1 -85 -4 -187 -7 -102 -4 -205 -8 -230 -11 -25 -2
-88 -7 -140 -10 -52 -3 -106 -8 -120 -10 -14 -2 -52 -6 -85 -10 -132 -12 -286
-35 -411 -59 -12 -2 -37 -7 -55 -10 -187 -30 -537 -134 -724 -216 -278 -120
-434 -231 -451 -321 -17 -93 -5 -151 62 -280 63 -122 153 -192 281 -219 l52
-11 42 -82 c23 -45 45 -86 49 -92 4 -5 33 -59 65 -120 81 -154 198 -375 245
-460 15 -27 53 -99 85 -160 32 -60 70 -132 85 -160 45 -84 398 -743 545 -1020
71 -133 116 -217 150 -280 18 -33 53 -98 77 -145 54 -101 142 -265 180 -335
14 -27 36 -69 48 -92 12 -24 59 -111 104 -195 102 -190 167 -311 242 -453 31
-60 92 -173 133 -250 42 -77 85 -158 96 -179 32 -61 93 -79 137 -39 9 8 84
140 164 292 81 152 157 294 169 316 12 22 46 85 75 140 29 55 69 129 88 165
19 36 53 99 75 140 134 252 203 381 227 425 15 28 51 95 80 150 29 55 70 132
90 170 21 39 105 196 188 350 82 154 167 314 189 355 62 115 190 355 241 450
24 47 62 117 82 155 21 39 54 102 75 140 92 173 130 244 158 295 16 30 54 102
85 160 30 58 74 139 96 180 23 41 52 96 66 122 22 43 28 47 77 57 157 31 254
125 311 301 28 88 32 131 17 195 -20 87 -50 123 -165 199 -95 62 -222 120
-420 191 -77 28 -324 102 -360 109 -14 2 -56 12 -95 21 -98 23 -151 33 -255
49 -19 3 -46 8 -60 11 -14 3 -79 12 -145 20 -66 9 -133 17 -150 20 -48 6 -122
13 -225 21 -52 3 -106 8 -120 9 -94 11 -824 27 -833 18z m783 -818 c47 -3 99
-8 115 -10 17 -2 57 -7 90 -10 33 -3 71 -7 85 -10 14 -2 43 -6 65 -9 135 -16
224 -37 226 -53 0 -5 2 -18 5 -29 4 -26 -44 -90 -96 -129 -183 -137 -417 -131
-582 15 -84 73 -143 180 -120 217 12 19 53 31 92 28 19 -2 73 -7 120 -10z
m-1920 -770 c106 -28 212 -106 277 -205 56 -84 77 -221 52 -330 -15 -67 -69
-171 -95 -182 -45 -21 -66 -4 -118 94 -26 51 -102 193 -167 315 -145 272 -144
269 -124 300 15 22 23 24 73 22 31 -1 77 -8 102 -14z m2030 -1057 c61 -15 115
-43 177 -90 78 -60 78 -72 3 -208 -20 -36 -65 -119 -99 -185 -195 -371 -216
-405 -251 -398 -3 1 -18 3 -35 6 -167 26 -318 162 -361 327 -68 259 116 528
381 557 28 3 51 7 53 8 5 5 88 -6 132 -17z"/>
</g>
</svg>
